<?xml version="1.0" encoding="UTF-8" standalone="no"?>
<!DOCTYPE svg PUBLIC "-//W3C//DTD SVG 1.1//EN"
 "http://www.w3.org/Graphics/SVG/1.1/DTD/svg11.dtd">
<!-- Generated by graphviz version 2.40.1 (20161225.0304)
 -->
<!-- Title: snakemake_dag Pages: 1 -->
<svg width="702pt" height="188pt"
 viewBox="0.00 0.00 702.00 188.00" xmlns="http://www.w3.org/2000/svg" xmlns:xlink="http://www.w3.org/1999/xlink">
<g id="graph0" class="graph" transform="scale(1 1) rotate(0) translate(4 184)">
<title>snakemake_dag</title>
<polygon fill="#ffffff" stroke="transparent" points="-4,4 -4,-184 698,-184 698,4 -4,4"/>
<!-- 0 -->
<g id="node1" class="node">
<title>0</title>
<path fill="none" stroke="#59d856" stroke-width="2" d="M361.5,-36C361.5,-36 331.5,-36 331.5,-36 325.5,-36 319.5,-30 319.5,-24 319.5,-24 319.5,-12 319.5,-12 319.5,-6 325.5,0 331.5,0 331.5,0 361.5,0 361.5,0 367.5,0 373.5,-6 373.5,-12 373.5,-12 373.5,-24 373.5,-24 373.5,-30 367.5,-36 361.5,-36"/>
<text text-anchor="middle" x="346.5" y="-15.5" font-family="sans" font-size="10.00" fill="#000000">gather</text>
</g>
<!-- 1 -->
<g id="node2" class="node">
<title>1</title>
<path fill="none" stroke="#d6d856" stroke-width="2" d="M59,-108C59,-108 12,-108 12,-108 6,-108 0,-102 0,-96 0,-96 0,-84 0,-84 0,-78 6,-72 12,-72 12,-72 59,-72 59,-72 65,-72 71,-78 71,-84 71,-84 71,-96 71,-96 71,-102 65,-108 59,-108"/>
<text text-anchor="middle" x="35.5" y="-93" font-family="sans" font-size="10.00" fill="#000000">get_pi</text>
<text text-anchor="middle" x="35.5" y="-82" font-family="sans" font-size="10.00" fill="#000000">file: run_00</text>
</g>
<!-- 1&#45;&gt;0 -->
<g id="edge1" class="edge">
<title>1&#45;&gt;0</title>
<path fill="none" stroke="#c0c0c0" stroke-width="2" d="M71.3185,-74.7024C74.0657,-73.7276 76.8142,-72.813 79.5,-72 159.7474,-47.7087 256.8987,-31.1642 309.0554,-23.2866"/>
<polygon fill="#c0c0c0" stroke="#c0c0c0" stroke-width="2" points="309.7977,-26.7148 319.1742,-21.7822 308.7682,-19.7909 309.7977,-26.7148"/>
</g>
<!-- 2 -->
<g id="node3" class="node">
<title>2</title>
<path fill="none" stroke="#56d8d8" stroke-width="2" d="M364,-180C364,-180 329,-180 329,-180 323,-180 317,-174 317,-168 317,-168 317,-156 317,-156 317,-150 323,-144 329,-144 329,-144 364,-144 364,-144 370,-144 376,-150 376,-156 376,-156 376,-168 376,-168 376,-174 370,-180 364,-180"/>
<text text-anchor="middle" x="346.5" y="-159.5" font-family="sans" font-size="10.00" fill="#000000">set_path</text>
</g>
<!-- 2&#45;&gt;1 -->
<g id="edge9" class="edge">
<title>2&#45;&gt;1</title>
<path fill="none" stroke="#c0c0c0" stroke-width="2" d="M316.8141,-157.8712C268.7924,-150.7925 171.103,-134.7358 81.1211,-108.2361"/>
<polygon fill="#c0c0c0" stroke="#c0c0c0" stroke-width="2" points="81.9024,-104.8164 71.3185,-105.2976 79.8924,-111.5217 81.9024,-104.8164"/>
</g>
<!-- 3 -->
<g id="node4" class="node">
<title>3</title>
<path fill="none" stroke="#d6d856" stroke-width="2" d="M148,-108C148,-108 101,-108 101,-108 95,-108 89,-102 89,-96 89,-96 89,-84 89,-84 89,-78 95,-72 101,-72 101,-72 148,-72 148,-72 154,-72 160,-78 160,-84 160,-84 160,-96 160,-96 160,-102 154,-108 148,-108"/>
<text text-anchor="middle" x="124.5" y="-93" font-family="sans" font-size="10.00" fill="#000000">get_pi</text>
<text text-anchor="middle" x="124.5" y="-82" font-family="sans" font-size="10.00" fill="#000000">file: run_01</text>
</g>
<!-- 2&#45;&gt;3 -->
<g id="edge10" class="edge">
<title>2&#45;&gt;3</title>
<path fill="none" stroke="#c0c0c0" stroke-width="2" d="M316.9325,-153.9483C283.263,-144.5803 226.4726,-128.1764 169.8614,-108.3538"/>
<polygon fill="#c0c0c0" stroke="#c0c0c0" stroke-width="2" points="171.0072,-105.0466 160.4124,-105.012 168.6732,-111.6461 171.0072,-105.0466"/>
</g>
<!-- 4 -->
<g id="node5" class="node">
<title>4</title>
<path fill="none" stroke="#d6d856" stroke-width="2" d="M237,-108C237,-108 190,-108 190,-108 184,-108 178,-102 178,-96 178,-96 178,-84 178,-84 178,-78 184,-72 190,-72 190,-72 237,-72 237,-72 243,-72 249,-78 249,-84 249,-84 249,-96 249,-96 249,-102 243,-108 237,-108"/>
<text text-anchor="middle" x="213.5" y="-93" font-family="sans" font-size="10.00" fill="#000000">get_pi</text>
<text text-anchor="middle" x="213.5" y="-82" font-family="sans" font-size="10.00" fill="#000000">file: run_02</text>
</g>
<!-- 2&#45;&gt;4 -->
<g id="edge11" class="edge">
<title>2&#45;&gt;4</title>
<path fill="none" stroke="#c0c0c0" stroke-width="2" d="M316.983,-146.0209C299.0644,-136.3206 275.8931,-123.7767 256.0206,-113.0187"/>
<polygon fill="#c0c0c0" stroke="#c0c0c0" stroke-width="2" points="257.6132,-109.9009 247.1528,-108.2181 254.2806,-116.0568 257.6132,-109.9009"/>
</g>
<!-- 5 -->
<g id="node6" class="node">
<title>5</title>
<path fill="none" stroke="#d6d856" stroke-width="2" d="M326,-108C326,-108 279,-108 279,-108 273,-108 267,-102 267,-96 267,-96 267,-84 267,-84 267,-78 273,-72 279,-72 279,-72 326,-72 326,-72 332,-72 338,-78 338,-84 338,-84 338,-96 338,-96 338,-102 332,-108 326,-108"/>
<text text-anchor="middle" x="302.5" y="-93" font-family="sans" font-size="10.00" fill="#000000">get_pi</text>
<text text-anchor="middle" x="302.5" y="-82" font-family="sans" font-size="10.00" fill="#000000">file: run_03</text>
</g>
<!-- 2&#45;&gt;5 -->
<g id="edge12" class="edge">
<title>2&#45;&gt;5</title>
<path fill="none" stroke="#c0c0c0" stroke-width="2" d="M335.3969,-143.8314C330.4326,-135.7079 324.4778,-125.9637 319.0072,-117.0118"/>
<polygon fill="#c0c0c0" stroke="#c0c0c0" stroke-width="2" points="321.9536,-115.121 313.7526,-108.4133 315.9806,-118.7712 321.9536,-115.121"/>
</g>
<!-- 6 -->
<g id="node7" class="node">
<title>6</title>
<path fill="none" stroke="#d6d856" stroke-width="2" d="M415,-108C415,-108 368,-108 368,-108 362,-108 356,-102 356,-96 356,-96 356,-84 356,-84 356,-78 362,-72 368,-72 368,-72 415,-72 415,-72 421,-72 427,-78 427,-84 427,-84 427,-96 427,-96 427,-102 421,-108 415,-108"/>
<text text-anchor="middle" x="391.5" y="-93" font-family="sans" font-size="10.00" fill="#000000">get_pi</text>
<text text-anchor="middle" x="391.5" y="-82" font-family="sans" font-size="10.00" fill="#000000">file: run_04</text>
</g>
<!-- 2&#45;&gt;6 -->
<g id="edge13" class="edge">
<title>2&#45;&gt;6</title>
<path fill="none" stroke="#c0c0c0" stroke-width="2" d="M357.8554,-143.8314C362.9326,-135.7079 369.0227,-125.9637 374.6176,-117.0118"/>
<polygon fill="#c0c0c0" stroke="#c0c0c0" stroke-width="2" points="377.6597,-118.7483 379.9917,-108.4133 371.7237,-115.0383 377.6597,-118.7483"/>
</g>
<!-- 7 -->
<g id="node8" class="node">
<title>7</title>
<path fill="none" stroke="#d6d856" stroke-width="2" d="M504,-108C504,-108 457,-108 457,-108 451,-108 445,-102 445,-96 445,-96 445,-84 445,-84 445,-78 451,-72 457,-72 457,-72 504,-72 504,-72 510,-72 516,-78 516,-84 516,-84 516,-96 516,-96 516,-102 510,-108 504,-108"/>
<text text-anchor="middle" x="480.5" y="-93" font-family="sans" font-size="10.00" fill="#000000">get_pi</text>
<text text-anchor="middle" x="480.5" y="-82" font-family="sans" font-size="10.00" fill="#000000">file: run_05</text>
</g>
<!-- 2&#45;&gt;7 -->
<g id="edge14" class="edge">
<title>2&#45;&gt;7</title>
<path fill="none" stroke="#c0c0c0" stroke-width="2" d="M376.2389,-146.0209C394.2922,-136.3206 417.6377,-123.7767 437.6597,-113.0187"/>
<polygon fill="#c0c0c0" stroke="#c0c0c0" stroke-width="2" points="439.4418,-116.0344 446.5941,-108.2181 436.1286,-109.8681 439.4418,-116.0344"/>
</g>
<!-- 8 -->
<g id="node9" class="node">
<title>8</title>
<path fill="none" stroke="#d6d856" stroke-width="2" d="M593,-108C593,-108 546,-108 546,-108 540,-108 534,-102 534,-96 534,-96 534,-84 534,-84 534,-78 540,-72 546,-72 546,-72 593,-72 593,-72 599,-72 605,-78 605,-84 605,-84 605,-96 605,-96 605,-102 599,-108 593,-108"/>
<text text-anchor="middle" x="569.5" y="-93" font-family="sans" font-size="10.00" fill="#000000">get_pi</text>
<text text-anchor="middle" x="569.5" y="-82" font-family="sans" font-size="10.00" fill="#000000">file: run_06</text>
</g>
<!-- 2&#45;&gt;8 -->
<g id="edge15" class="edge">
<title>2&#45;&gt;8</title>
<path fill="none" stroke="#c0c0c0" stroke-width="2" d="M376.237,-153.9669C410.0989,-144.6159 467.2115,-128.2286 524.0952,-108.3657"/>
<polygon fill="#c0c0c0" stroke="#c0c0c0" stroke-width="2" points="525.3231,-111.644 533.5892,-105.0167 522.9944,-105.0427 525.3231,-111.644"/>
</g>
<!-- 9 -->
<g id="node10" class="node">
<title>9</title>
<path fill="none" stroke="#d6d856" stroke-width="2" d="M682,-108C682,-108 635,-108 635,-108 629,-108 623,-102 623,-96 623,-96 623,-84 623,-84 623,-78 629,-72 635,-72 635,-72 682,-72 682,-72 688,-72 694,-78 694,-84 694,-84 694,-96 694,-96 694,-102 688,-108 682,-108"/>
<text text-anchor="middle" x="658.5" y="-93" font-family="sans" font-size="10.00" fill="#000000">get_pi</text>
<text text-anchor="middle" x="658.5" y="-82" font-family="sans" font-size="10.00" fill="#000000">file: run_07</text>
</g>
<!-- 2&#45;&gt;9 -->
<g id="edge16" class="edge">
<title>2&#45;&gt;9</title>
<path fill="none" stroke="#c0c0c0" stroke-width="2" d="M376.2978,-157.8848C424.5003,-150.8251 522.5569,-134.7951 612.8462,-108.2442"/>
<polygon fill="#c0c0c0" stroke="#c0c0c0" stroke-width="2" points="614.1059,-111.5206 622.6821,-105.2998 612.0984,-104.8146 614.1059,-111.5206"/>
</g>
<!-- 3&#45;&gt;0 -->
<g id="edge2" class="edge">
<title>3&#45;&gt;0</title>
<path fill="none" stroke="#c0c0c0" stroke-width="2" d="M160.4124,-74.988C163.1379,-73.9471 165.8558,-72.9396 168.5,-72 216.758,-54.8516 273.5362,-38.2262 309.7582,-28.0568"/>
<polygon fill="#c0c0c0" stroke="#c0c0c0" stroke-width="2" points="310.7142,-31.4239 319.4054,-25.3647 308.8326,-24.6815 310.7142,-31.4239"/>
</g>
<!-- 4&#45;&gt;0 -->
<g id="edge3" class="edge">
<title>4&#45;&gt;0</title>
<path fill="none" stroke="#c0c0c0" stroke-width="2" d="M247.0615,-71.8314C266.3269,-61.402 290.5267,-48.3013 310.2292,-37.6353"/>
<polygon fill="#c0c0c0" stroke="#c0c0c0" stroke-width="2" points="312.0864,-40.6099 319.2143,-32.7712 308.7539,-34.454 312.0864,-40.6099"/>
</g>
<!-- 5&#45;&gt;0 -->
<g id="edge4" class="edge">
<title>5&#45;&gt;0</title>
<path fill="none" stroke="#c0c0c0" stroke-width="2" d="M313.6031,-71.8314C318.5674,-63.7079 324.5222,-53.9637 329.9928,-45.0118"/>
<polygon fill="#c0c0c0" stroke="#c0c0c0" stroke-width="2" points="333.0194,-46.7712 335.2474,-36.4133 327.0464,-43.121 333.0194,-46.7712"/>
</g>
<!-- 6&#45;&gt;0 -->
<g id="edge5" class="edge">
<title>6&#45;&gt;0</title>
<path fill="none" stroke="#c0c0c0" stroke-width="2" d="M380.1446,-71.8314C375.0674,-63.7079 368.9773,-53.9637 363.3824,-45.0118"/>
<polygon fill="#c0c0c0" stroke="#c0c0c0" stroke-width="2" points="366.2763,-43.0383 358.0083,-36.4133 360.3403,-46.7483 366.2763,-43.0383"/>
</g>
<!-- 7&#45;&gt;0 -->
<g id="edge6" class="edge">
<title>7&#45;&gt;0</title>
<path fill="none" stroke="#c0c0c0" stroke-width="2" d="M446.6861,-71.8314C427.142,-61.33 402.5576,-48.1205 382.6335,-37.415"/>
<polygon fill="#c0c0c0" stroke="#c0c0c0" stroke-width="2" points="384.022,-34.1879 373.5564,-32.5378 380.7087,-40.3541 384.022,-34.1879"/>
</g>
<!-- 8&#45;&gt;0 -->
<g id="edge7" class="edge">
<title>8&#45;&gt;0</title>
<path fill="none" stroke="#c0c0c0" stroke-width="2" d="M533.5892,-74.9833C530.8634,-73.9436 528.1449,-72.9376 525.5,-72 476.9803,-54.801 419.8809,-38.1877 383.4523,-28.0349"/>
<polygon fill="#c0c0c0" stroke="#c0c0c0" stroke-width="2" points="384.3215,-24.6439 373.75,-25.3475 382.4529,-31.3899 384.3215,-24.6439"/>
</g>
<!-- 9&#45;&gt;0 -->
<g id="edge8" class="edge">
<title>9&#45;&gt;0</title>
<path fill="none" stroke="#c0c0c0" stroke-width="2" d="M622.6821,-74.7002C619.9348,-73.7259 617.1861,-72.812 614.5,-72 533.7425,-47.5862 435.924,-31.0412 383.6723,-23.2081"/>
<polygon fill="#c0c0c0" stroke="#c0c0c0" stroke-width="2" points="383.9459,-19.7107 373.5421,-21.7135 382.9241,-26.6357 383.9459,-19.7107"/>
</g>
</g>
</svg>
